<mxfile host="app.diagrams.net" modified="2020-10-26T13:55:47.306Z" agent="5.0 (Windows NT 10.0; Win64; x64) AppleWebKit/537.36 (KHTML, like Gecko) Chrome/86.0.4240.111 Safari/537.36" etag="lnDDU9_4ITuhcfB8zXZr" version="13.8.2" type="github">
  <diagram name="Page-1" id="c7488fd3-1785-93aa-aadb-54a6760d102a">
    <mxGraphModel dx="1019" dy="519" grid="1" gridSize="10" guides="1" tooltips="1" connect="1" arrows="1" fold="1" page="1" pageScale="1" pageWidth="1654" pageHeight="1169" background="#ffffff" math="0" shadow="0">
      <root>
        <mxCell id="0" />
        <mxCell id="1" parent="0" />
        <mxCell id="2b4e8129b02d487f-1" value="&lt;span lang=&quot;AR-SA&quot; dir=&quot;RTL&quot; style=&quot;line-height: 107% ; font-family: &amp;#34;dubai&amp;#34; , sans-serif&quot;&gt;&lt;font style=&quot;font-size: 9px&quot;&gt;طلب&amp;nbsp;تسجيل في دورة قسم الدارسين&lt;/font&gt;&lt;/span&gt;" style="swimlane;html=1;childLayout=stackLayout;horizontal=1;startSize=20;horizontalStack=0;rounded=0;shadow=0;labelBackgroundColor=none;strokeWidth=1;fontFamily=Verdana;fontSize=8;align=center;fillColor=#a20025;strokeColor=#6F0000;fontColor=#ffffff;" parent="1" vertex="1">
          <mxGeometry x="170" y="50" width="780" height="320" as="geometry">
            <mxRectangle x="170" y="80" width="280" height="20" as="alternateBounds" />
          </mxGeometry>
        </mxCell>
        <mxCell id="2b4e8129b02d487f-2" value="المتعامل" style="swimlane;html=1;startSize=20;horizontal=0;fillColor=#a20025;strokeColor=#6F0000;fontColor=#ffffff;" parent="2b4e8129b02d487f-1" vertex="1">
          <mxGeometry y="20" width="780" height="120" as="geometry" />
        </mxCell>
        <mxCell id="KPhhI4xXO0q0EvICIsSK-14" style="edgeStyle=none;rounded=0;jumpStyle=none;orthogonalLoop=1;jettySize=auto;html=1;entryX=1;entryY=0.5;entryDx=0;entryDy=0;endArrow=blockThin;endFill=1;" parent="2b4e8129b02d487f-2" source="2b4e8129b02d487f-9" target="2b4e8129b02d487f-7" edge="1">
          <mxGeometry relative="1" as="geometry" />
        </mxCell>
        <mxCell id="KPhhI4xXO0q0EvICIsSK-11" style="edgeStyle=none;rounded=0;jumpStyle=none;orthogonalLoop=1;jettySize=auto;html=1;entryX=0;entryY=0.5;entryDx=0;entryDy=0;endArrow=classic;endFill=1;" parent="2b4e8129b02d487f-2" source="KPhhI4xXO0q0EvICIsSK-3" target="2b4e8129b02d487f-7" edge="1">
          <mxGeometry relative="1" as="geometry" />
        </mxCell>
        <mxCell id="KPhhI4xXO0q0EvICIsSK-13" style="edgeStyle=none;rounded=0;jumpStyle=none;orthogonalLoop=1;jettySize=auto;html=1;entryX=0.076;entryY=0.575;entryDx=0;entryDy=0;entryPerimeter=0;endArrow=blockThin;endFill=1;" parent="2b4e8129b02d487f-2" source="2b4e8129b02d487f-5" target="KPhhI4xXO0q0EvICIsSK-3" edge="1">
          <mxGeometry relative="1" as="geometry" />
        </mxCell>
        <mxCell id="KPhhI4xXO0q0EvICIsSK-5" style="rounded=0;orthogonalLoop=1;jettySize=auto;html=1;jumpStyle=none;endArrow=oval;endFill=1;" parent="2b4e8129b02d487f-2" target="KPhhI4xXO0q0EvICIsSK-3" edge="1">
          <mxGeometry relative="1" as="geometry">
            <mxPoint x="170.39661764705897" y="91" as="sourcePoint" />
          </mxGeometry>
        </mxCell>
        <mxCell id="2b4e8129b02d487f-11" value="اغلاق" style="ellipse;whiteSpace=wrap;html=1;rounded=0;shadow=0;labelBackgroundColor=none;strokeWidth=2;fontFamily=Verdana;fontSize=8;align=center;fillColor=#a20025;strokeColor=#6F0000;fontColor=#ffffff;" parent="2b4e8129b02d487f-2" vertex="1">
          <mxGeometry x="740" y="11.5" width="30" height="30" as="geometry" />
        </mxCell>
        <mxCell id="KPhhI4xXO0q0EvICIsSK-12" value="&lt;font style=&quot;font-size: 10px&quot;&gt;5&lt;/font&gt;" style="ellipse;whiteSpace=wrap;html=1;aspect=fixed;fillColor=#f8cecc;strokeColor=#b85450;" parent="2b4e8129b02d487f-2" vertex="1">
          <mxGeometry x="390" y="36.5" width="15" height="15" as="geometry" />
        </mxCell>
        <mxCell id="2b4e8129b02d487f-9" value="&amp;nbsp;استكمال البيانات و اعدة ارسال الطلب" style="rounded=1;whiteSpace=wrap;html=1;shadow=0;labelBackgroundColor=none;strokeWidth=1;fontFamily=Verdana;fontSize=8;align=center;fillColor=#a20025;strokeColor=#6F0000;fontColor=#ffffff;" parent="2b4e8129b02d487f-2" vertex="1">
          <mxGeometry x="390" y="51.49999999999997" width="70" height="37" as="geometry" />
        </mxCell>
        <mxCell id="2b4e8129b02d487f-5" value="بداية" style="ellipse;whiteSpace=wrap;html=1;rounded=0;shadow=0;labelBackgroundColor=none;strokeWidth=1;fontFamily=Verdana;fontSize=8;align=center;fillColor=#a20025;strokeColor=#6F0000;fontColor=#ffffff;" parent="2b4e8129b02d487f-2" vertex="1">
          <mxGeometry x="40" y="58.5" width="30" height="30" as="geometry" />
        </mxCell>
        <mxCell id="KPhhI4xXO0q0EvICIsSK-7" value="&lt;font style=&quot;font-size: 10px&quot;&gt;1&lt;/font&gt;" style="ellipse;whiteSpace=wrap;html=1;aspect=fixed;fillColor=#f8cecc;strokeColor=#b85450;" parent="2b4e8129b02d487f-2" vertex="1">
          <mxGeometry x="120" y="41.5" width="15" height="15" as="geometry" />
        </mxCell>
        <mxCell id="KPhhI4xXO0q0EvICIsSK-3" value="" style="pointerEvents=1;shadow=0;dashed=0;html=1;strokeColor=none;fillColor=#505050;labelPosition=center;verticalLabelPosition=bottom;verticalAlign=top;outlineConnect=0;align=center;shape=mxgraph.office.devices.laptop;" parent="2b4e8129b02d487f-2" vertex="1">
          <mxGeometry x="120" y="54.5" width="58" height="34" as="geometry" />
        </mxCell>
        <mxCell id="2b4e8129b02d487f-7" value="&lt;font face=&quot;dubai, sans-serif&quot;&gt;تعبئة و نموذج طلب&amp;nbsp; طلب التسجيل في دورة قسم الدارسين&lt;/font&gt;" style="rounded=1;whiteSpace=wrap;html=1;shadow=0;labelBackgroundColor=none;strokeWidth=1;fontFamily=Verdana;fontSize=8;align=center;fillColor=#a20025;strokeColor=#6F0000;fontColor=#ffffff;" parent="2b4e8129b02d487f-2" vertex="1">
          <mxGeometry x="250" y="51.49999999999997" width="70" height="37" as="geometry" />
        </mxCell>
        <mxCell id="KPhhI4xXO0q0EvICIsSK-10" value="&lt;font style=&quot;font-size: 10px&quot;&gt;2&lt;/font&gt;" style="ellipse;whiteSpace=wrap;html=1;aspect=fixed;fillColor=#f8cecc;strokeColor=#b85450;" parent="2b4e8129b02d487f-2" vertex="1">
          <mxGeometry x="250" y="36.5" width="15" height="15" as="geometry" />
        </mxCell>
        <mxCell id="2vPmhwO70LCvBUlOEUrR-1" value="" style="shape=actor;whiteSpace=wrap;html=1;fillColor=#a20025;strokeColor=#6F0000;fontColor=#ffffff;" parent="2b4e8129b02d487f-2" vertex="1">
          <mxGeometry x="172.5" y="80" width="25" height="30" as="geometry" />
        </mxCell>
        <mxCell id="KPhhI4xXO0q0EvICIsSK-6" value="&lt;font style=&quot;font-size: 8px&quot;&gt;&lt;b&gt;الدخول الى البوابة&lt;/b&gt;&lt;/font&gt;" style="text;html=1;strokeColor=none;fillColor=none;align=center;verticalAlign=middle;whiteSpace=wrap;rounded=0;" parent="2b4e8129b02d487f-2" vertex="1">
          <mxGeometry x="120" y="90" width="50" height="20" as="geometry" />
        </mxCell>
        <mxCell id="iQ6zpuJub-8FZTgoGo5C-7" value="&lt;font style=&quot;font-size: 10px&quot;&gt;6&lt;/font&gt;" style="ellipse;whiteSpace=wrap;html=1;aspect=fixed;fillColor=#f8cecc;strokeColor=#b85450;" parent="2b4e8129b02d487f-2" vertex="1">
          <mxGeometry x="515" y="36.5" width="15" height="15" as="geometry" />
        </mxCell>
        <mxCell id="7uWFeRx3-95X7DPkVtet-58" style="edgeStyle=orthogonalEdgeStyle;rounded=0;orthogonalLoop=1;jettySize=auto;html=1;entryX=0;entryY=0.5;entryDx=0;entryDy=0;" parent="2b4e8129b02d487f-2" source="7uWFeRx3-95X7DPkVtet-32" target="2b4e8129b02d487f-11" edge="1">
          <mxGeometry relative="1" as="geometry">
            <Array as="points">
              <mxPoint x="565" y="27" />
              <mxPoint x="670" y="27" />
            </Array>
          </mxGeometry>
        </mxCell>
        <mxCell id="7uWFeRx3-95X7DPkVtet-32" value="رسالة إعتذار إلى العميل&amp;nbsp;" style="whiteSpace=wrap;html=1;rounded=1;shadow=0;fontFamily=Verdana;fontSize=8;fontColor=#ffffff;strokeColor=#6F0000;strokeWidth=1;fillColor=#a20025;" parent="2b4e8129b02d487f-2" vertex="1">
          <mxGeometry x="530" y="54" width="70" height="32" as="geometry" />
        </mxCell>
        <mxCell id="7uWFeRx3-95X7DPkVtet-66" style="edgeStyle=orthogonalEdgeStyle;rounded=0;orthogonalLoop=1;jettySize=auto;html=1;" parent="2b4e8129b02d487f-2" source="2vPmhwO70LCvBUlOEUrR-94" target="2b4e8129b02d487f-11" edge="1">
          <mxGeometry relative="1" as="geometry" />
        </mxCell>
        <mxCell id="2vPmhwO70LCvBUlOEUrR-94" value="&amp;nbsp;ارسال رسالة موافقة و شهادة الى العميل" style="rounded=1;whiteSpace=wrap;html=1;shadow=0;labelBackgroundColor=none;strokeWidth=1;fontFamily=Verdana;fontSize=8;align=center;fillColor=#a20025;strokeColor=#6F0000;fontColor=#ffffff;" parent="2b4e8129b02d487f-2" vertex="1">
          <mxGeometry x="640" y="58.49999999999997" width="70" height="37" as="geometry" />
        </mxCell>
        <mxCell id="7uWFeRx3-95X7DPkVtet-63" value="&lt;font style=&quot;font-size: 10px&quot;&gt;9&lt;/font&gt;" style="ellipse;whiteSpace=wrap;html=1;aspect=fixed;fillColor=#f8cecc;strokeColor=#b85450;" parent="2b4e8129b02d487f-2" vertex="1">
          <mxGeometry x="640" y="39.5" width="15" height="15" as="geometry" />
        </mxCell>
        <mxCell id="2b4e8129b02d487f-3" value="قسم الدارسين" style="swimlane;html=1;startSize=20;horizontal=0;strokeColor=#6F0000;fontColor=#ffffff;fillColor=#A20025;" parent="2b4e8129b02d487f-1" vertex="1">
          <mxGeometry y="140" width="780" height="180" as="geometry">
            <mxRectangle y="140" width="760" height="20" as="alternateBounds" />
          </mxGeometry>
        </mxCell>
        <mxCell id="KPhhI4xXO0q0EvICIsSK-19" value="&lt;font style=&quot;font-size: 10px&quot;&gt;3&lt;/font&gt;" style="ellipse;whiteSpace=wrap;html=1;aspect=fixed;fillColor=#f8cecc;strokeColor=#b85450;" parent="2b4e8129b02d487f-3" vertex="1">
          <mxGeometry x="70" y="33.75" width="15" height="15" as="geometry" />
        </mxCell>
        <mxCell id="7uWFeRx3-95X7DPkVtet-49" style="edgeStyle=orthogonalEdgeStyle;rounded=0;orthogonalLoop=1;jettySize=auto;html=1;entryX=0;entryY=1;entryDx=0;entryDy=0;exitX=0.5;exitY=1;exitDx=0;exitDy=0;exitPerimeter=0;" parent="2b4e8129b02d487f-3" source="2vPmhwO70LCvBUlOEUrR-27" target="7uWFeRx3-95X7DPkVtet-42" edge="1">
          <mxGeometry relative="1" as="geometry">
            <Array as="points">
              <mxPoint x="300" y="139" />
            </Array>
          </mxGeometry>
        </mxCell>
        <mxCell id="7uWFeRx3-95X7DPkVtet-50" value="&lt;b&gt;ارسال طلب الى معلم&lt;/b&gt;" style="edgeLabel;html=1;align=center;verticalAlign=middle;resizable=0;points=[];" parent="7uWFeRx3-95X7DPkVtet-49" vertex="1" connectable="0">
          <mxGeometry x="-0.1009" y="-2" relative="1" as="geometry">
            <mxPoint as="offset" />
          </mxGeometry>
        </mxCell>
        <mxCell id="7uWFeRx3-95X7DPkVtet-55" style="edgeStyle=orthogonalEdgeStyle;rounded=0;orthogonalLoop=1;jettySize=auto;html=1;exitX=1;exitY=0.5;exitDx=0;exitDy=0;exitPerimeter=0;" parent="2b4e8129b02d487f-3" source="2vPmhwO70LCvBUlOEUrR-27" target="7uWFeRx3-95X7DPkVtet-33" edge="1">
          <mxGeometry relative="1" as="geometry">
            <Array as="points">
              <mxPoint x="340" y="90" />
              <mxPoint x="689" y="90" />
            </Array>
          </mxGeometry>
        </mxCell>
        <mxCell id="7uWFeRx3-95X7DPkVtet-56" value="&lt;b&gt;موافقة&lt;/b&gt;" style="edgeLabel;html=1;align=center;verticalAlign=middle;resizable=0;points=[];" parent="7uWFeRx3-95X7DPkVtet-55" vertex="1" connectable="0">
          <mxGeometry x="0.259" y="-1" relative="1" as="geometry">
            <mxPoint as="offset" />
          </mxGeometry>
        </mxCell>
        <mxCell id="2vPmhwO70LCvBUlOEUrR-27" value="موافقة؟" style="strokeWidth=1;html=1;shape=mxgraph.flowchart.decision;whiteSpace=wrap;rounded=1;shadow=0;labelBackgroundColor=none;fontFamily=Verdana;fontSize=8;align=center;fillColor=#a20025;strokeColor=#6F0000;fontColor=#ffffff;" parent="2b4e8129b02d487f-3" vertex="1">
          <mxGeometry x="260" y="42" width="80" height="52.5" as="geometry" />
        </mxCell>
        <mxCell id="7uWFeRx3-95X7DPkVtet-4" style="edgeStyle=orthogonalEdgeStyle;rounded=0;orthogonalLoop=1;jettySize=auto;html=1;" parent="2b4e8129b02d487f-3" source="7uWFeRx3-95X7DPkVtet-1" target="2vPmhwO70LCvBUlOEUrR-27" edge="1">
          <mxGeometry relative="1" as="geometry" />
        </mxCell>
        <mxCell id="7uWFeRx3-95X7DPkVtet-1" value="&lt;font face=&quot;dubai, sans-serif&quot;&gt;استلام الطلب و مراجعته&lt;/font&gt;" style="rounded=1;whiteSpace=wrap;html=1;shadow=0;labelBackgroundColor=none;strokeWidth=1;fontFamily=Verdana;fontSize=8;align=center;fillColor=#a20025;strokeColor=#6F0000;fontColor=#ffffff;" parent="2b4e8129b02d487f-3" vertex="1">
          <mxGeometry x="70" y="49.74999999999997" width="70" height="37" as="geometry" />
        </mxCell>
        <mxCell id="7uWFeRx3-95X7DPkVtet-3" value="&lt;font style=&quot;font-size: 10px&quot;&gt;4&lt;/font&gt;" style="ellipse;whiteSpace=wrap;html=1;aspect=fixed;fillColor=#f8cecc;strokeColor=#b85450;" parent="2b4e8129b02d487f-3" vertex="1">
          <mxGeometry x="260" y="44.75" width="15" height="15" as="geometry" />
        </mxCell>
        <mxCell id="7uWFeRx3-95X7DPkVtet-42" value="&lt;b&gt;&lt;font color=&quot;#000000&quot; style=&quot;font-size: 8px&quot;&gt;اختيار المعلم و ارسال الطلب&lt;/font&gt;&lt;/b&gt;" style="verticalLabelPosition=bottom;verticalAlign=top;html=1;shape=trapezoid;perimeter=trapezoidPerimeter;whiteSpace=wrap;size=0.23;arcSize=10;flipV=1;fillColor=#a20025;strokeColor=#6F0000;fontColor=#ffffff;" parent="2b4e8129b02d487f-3" vertex="1">
          <mxGeometry x="400" y="103.87" width="90" height="43.25" as="geometry" />
        </mxCell>
        <mxCell id="7uWFeRx3-95X7DPkVtet-33" value="اصدار شهادة" style="strokeWidth=2;html=1;shape=mxgraph.flowchart.document2;whiteSpace=wrap;size=0.25;fontSize=8;" parent="2b4e8129b02d487f-3" vertex="1">
          <mxGeometry x="670" y="36.75" width="65" height="31" as="geometry" />
        </mxCell>
        <mxCell id="7uWFeRx3-95X7DPkVtet-60" value="&lt;font style=&quot;font-size: 10px&quot;&gt;7&lt;/font&gt;" style="ellipse;whiteSpace=wrap;html=1;aspect=fixed;fillColor=#f8cecc;strokeColor=#b85450;" parent="2b4e8129b02d487f-3" vertex="1">
          <mxGeometry x="382.5" y="103.87" width="15" height="15" as="geometry" />
        </mxCell>
        <mxCell id="7uWFeRx3-95X7DPkVtet-61" value="&lt;font style=&quot;font-size: 10px&quot;&gt;8&lt;/font&gt;" style="ellipse;whiteSpace=wrap;html=1;aspect=fixed;fillColor=#f8cecc;strokeColor=#b85450;" parent="2b4e8129b02d487f-3" vertex="1">
          <mxGeometry x="670" y="18.75" width="15" height="15" as="geometry" />
        </mxCell>
        <mxCell id="7uWFeRx3-95X7DPkVtet-5" style="edgeStyle=orthogonalEdgeStyle;rounded=0;orthogonalLoop=1;jettySize=auto;html=1;exitX=0.5;exitY=0;exitDx=0;exitDy=0;exitPerimeter=0;" parent="2b4e8129b02d487f-1" source="2vPmhwO70LCvBUlOEUrR-27" target="2b4e8129b02d487f-9" edge="1">
          <mxGeometry relative="1" as="geometry">
            <Array as="points">
              <mxPoint x="300" y="160" />
              <mxPoint x="425" y="160" />
            </Array>
          </mxGeometry>
        </mxCell>
        <mxCell id="7uWFeRx3-95X7DPkVtet-6" value="&lt;b&gt;استكمال بيانات&lt;/b&gt;" style="edgeLabel;html=1;align=center;verticalAlign=middle;resizable=0;points=[];" parent="7uWFeRx3-95X7DPkVtet-5" vertex="1" connectable="0">
          <mxGeometry x="-0.0676" y="-1" relative="1" as="geometry">
            <mxPoint as="offset" />
          </mxGeometry>
        </mxCell>
        <mxCell id="7uWFeRx3-95X7DPkVtet-51" style="edgeStyle=orthogonalEdgeStyle;rounded=0;orthogonalLoop=1;jettySize=auto;html=1;" parent="2b4e8129b02d487f-1" source="2vPmhwO70LCvBUlOEUrR-27" target="7uWFeRx3-95X7DPkVtet-32" edge="1">
          <mxGeometry relative="1" as="geometry" />
        </mxCell>
        <mxCell id="7uWFeRx3-95X7DPkVtet-54" value="&lt;b&gt;رفض&lt;/b&gt;" style="edgeLabel;html=1;align=center;verticalAlign=middle;resizable=0;points=[];" parent="7uWFeRx3-95X7DPkVtet-51" vertex="1" connectable="0">
          <mxGeometry x="-0.2019" y="4" relative="1" as="geometry">
            <mxPoint as="offset" />
          </mxGeometry>
        </mxCell>
        <mxCell id="7uWFeRx3-95X7DPkVtet-53" style="edgeStyle=orthogonalEdgeStyle;rounded=0;orthogonalLoop=1;jettySize=auto;html=1;" parent="2b4e8129b02d487f-1" source="2b4e8129b02d487f-7" target="7uWFeRx3-95X7DPkVtet-1" edge="1">
          <mxGeometry relative="1" as="geometry">
            <Array as="points">
              <mxPoint x="270" y="160" />
              <mxPoint x="105" y="160" />
            </Array>
          </mxGeometry>
        </mxCell>
        <mxCell id="7uWFeRx3-95X7DPkVtet-59" style="edgeStyle=orthogonalEdgeStyle;rounded=0;orthogonalLoop=1;jettySize=auto;html=1;entryX=0.5;entryY=1;entryDx=0;entryDy=0;" parent="2b4e8129b02d487f-1" source="7uWFeRx3-95X7DPkVtet-42" target="2b4e8129b02d487f-11" edge="1">
          <mxGeometry relative="1" as="geometry" />
        </mxCell>
        <mxCell id="7uWFeRx3-95X7DPkVtet-65" style="edgeStyle=orthogonalEdgeStyle;rounded=0;orthogonalLoop=1;jettySize=auto;html=1;" parent="2b4e8129b02d487f-1" source="7uWFeRx3-95X7DPkVtet-33" target="2vPmhwO70LCvBUlOEUrR-94" edge="1">
          <mxGeometry relative="1" as="geometry" />
        </mxCell>
      </root>
    </mxGraphModel>
  </diagram>
</mxfile>
